# xmcd
#
# Track frame offsets:
#	150
#	15894
#	40235
#	57178
#	71460
#	82577
#	101232
#	122616
#	137357
#	150000
#	163361
#	194695
#	223279
#	236157
#
# Disc length: 3207 seconds
#
# Revision: 1
# Processed by: cddbd v1.5.2PL0 Copyright (c) Steve Scherf et al.
# Submitted via: audiograbber 1.83.01
#
DISCID=b40c850e
DTITLE=Various Artist - Jazz Gold CD 2
DYEAR=2006
DGENRE=Jazz
TTITLE0=Quincy Jones and orchestra - Take Five
TTITLE1=Miles Davis Quintet with John Coltrane - Round Midnight
TTITLE2=Anita O'Day - Fly Me to the Moon
TTITLE3=Charlie Parker - April in Paris
TTITLE4=Ben Webster - Stardust
TTITLE5=Ella Fitzgerald - Dream a little Dream of Me
TTITLE6=Miles Davis - Solar
TTITLE7=Clifford Brown - Blue Moon
TTITLE8=Erroll Garner - Misty
TTITLE9=Gerry Mullugan - My Funny Valentine
TTITLE10=Bill Evans - Waltz for Debby
TTITLE11=Thelonious Monk - Ruby, My Dear
TTITLE12=Miles Davis - Generique
TTITLE13=The Duke Ellington orchestra - Take The  A Train
EXTD=YEAR: 2006
EXTT0=
EXTT1=
EXTT2=
EXTT3=
EXTT4=
EXTT5=
EXTT6=
EXTT7=
EXTT8=
EXTT9=
EXTT10=
EXTT11=
EXTT12=
EXTT13=
PLAYORDER=
